<?xml version="1.0" standalone="no"?>
<!DOCTYPE svg PUBLIC "-//W3C//DTD SVG 20010904//EN"
 "http://www.w3.org/TR/2001/REC-SVG-20010904/DTD/svg10.dtd">
<svg version="1.0" xmlns="http://www.w3.org/2000/svg"
 width="70.000000pt" height="70.000000pt" viewBox="0 0 70.000000 70.000000"
 preserveAspectRatio="xMidYMid meet">
<metadata>
Created by potrace 1.14, written by Peter Selinger 2001-2017
</metadata>
<g transform="translate(0.000000,70.000000) scale(0.100000,-0.100000)"
fill="#000000" stroke="none">
<path d="M70 460 l0 -210 55 0 55 0 0 60 c0 33 4 60 9 60 5 0 28 -21 50 -47
l41 -48 40 45 c38 43 39 48 40 118 0 39 -4 72 -9 72 -5 0 -21 -16 -36 -36 -15
-19 -30 -34 -34 -32 -5 2 -52 54 -105 116 -53 61 -99 112 -101 112 -3 0 -5
-94 -5 -210z"/>
<path d="M433 612 l-53 -60 0 -151 0 -151 130 0 130 0 0 35 c0 24 5 35 15 35
23 0 18 17 -7 24 -13 3 -53 6 -90 6 l-68 0 -2 161 -3 161 -52 -60z"/>
<path d="M77 223 c-11 -10 -8 -83 3 -83 6 0 10 8 10 18 1 15 2 15 12 -2 10
-18 11 -18 24 5 l13 24 1 -22 c0 -13 5 -23 11 -23 14 0 7 82 -7 87 -7 2 -15
-9 -19 -24 l-8 -28 -10 28 c-11 27 -18 32 -30 20z"/>
<path d="M190 185 c0 -43 2 -45 28 -45 24 1 25 2 10 14 -10 7 -18 16 -18 19 0
3 8 8 18 10 16 4 16 5 0 6 -22 1 -24 21 -3 21 8 0 15 5 15 10 0 6 -11 10 -25
10 -23 0 -25 -4 -25 -45z"/>
<path d="M270 185 c0 -40 2 -45 23 -45 29 0 47 18 47 45 0 27 -18 45 -47 45
-21 0 -23 -5 -23 -45z m48 -2 c-4 -39 -28 -42 -28 -4 0 21 5 31 16 31 11 0 14
-8 12 -27z"/>
<path d="M370 186 c0 -25 5 -46 10 -46 6 0 10 18 10 39 0 22 -4 43 -10 46 -6
4 -10 -12 -10 -39z"/>
<path d="M420 186 c0 -44 1 -46 28 -46 24 1 25 2 10 14 -10 7 -18 25 -18 39 0
14 -4 29 -10 32 -6 4 -10 -12 -10 -39z"/>
<path d="M511 208 c-19 -51 -22 -68 -13 -68 6 0 12 6 15 13 3 9 9 9 26 -1 25
-15 27 -4 10 47 -13 37 -26 40 -38 9z"/>
<path d="M597 224 c-4 -4 -7 -25 -7 -46 0 -37 2 -39 28 -36 24 3 27 7 27 43 0
33 -4 41 -20 43 -12 2 -24 0 -28 -4z m25 -66 c-7 -7 -12 -8 -12 -2 0 14 12 26
19 19 2 -3 -1 -11 -7 -17z"/>
</g>
</svg>
